# xmcd CD database file
#
# Track frame offsets:
#	150
#	25157
#	52218
#	74426
#	93530
#	112922
#	134007
#	158191
#	178400
#	202265
#	223896
#
# Disc length: 3102 seconds
#
# Revision: 0
# Processed by: cddbd v1.5.2PL0 Copyright (c) Steve Scherf et al.
# Submitted via: CDex 1.51
#
DISCID=b40c1c0b
DTITLE=fm trio - moment
DYEAR=2008
DGENRE=Jazz
TTITLE0=Alone
TTITLE1=Clown
TTITLE2=Heiwäg
TTITLE3=Think before you speak drinke before you seak
TTITLE4=Allegria
TTITLE5=Searching
TTITLE6=S eigä Gfängnis davor und danach
TTITLE7=Davor und danach
TTITLE8=Hymn of Silence
TTITLE9=Cliche
TTITLE10=Track one
EXTD=YEAR: 2008
EXTT0=
EXTT1=
EXTT2=
EXTT3=
EXTT4=
EXTT5=
EXTT6=
EXTT7=
EXTT8=
EXTT9=
EXTT10=
PLAYORDER=
